<svg xmlns="http://www.w3.org/2000/svg" viewBox="0 0 147.8 33"><defs><style>.cls-1{fill:#000000;}</style></defs><g id="Layer_2" data-name="Layer 2"><g id="SubBrand"><path class="cls-1" d="M51.78,0H40.28a1.08,1.08,0,0,0-.83.33,1.21,1.21,0,0,0-.3.85V5.47h12.4q4,0,5.79,1.81c1.23,1.21,1.87,3.11,1.94,5.68.06,1.83.09,3,.09,3.49s0,1.65-.09,3.54q-.11,4.05-1.84,5.8t-5.66,1.74H39.15v4.34a1.09,1.09,0,0,0,.33.8,1.08,1.08,0,0,0,.8.33H52q7,0,10.39-3.14T66,20.13c.06-1.82.1-3,.1-3.63s0-1.85-.1-3.68Q65.69,0,51.78,0Z"/><path class="cls-1" d="M107.52,0H96Q82.12,0,81.83,12.82c-.06,1.83-.09,3-.09,3.68s0,1.81.09,3.63q.19,6.6,3.56,9.73T95.78,33h11.74a1.13,1.13,0,0,0,1.13-1.13v-13h0V15.61h0a1.06,1.06,0,0,0-.33-.82,1.16,1.16,0,0,0-.84-.31H97.34a1.13,1.13,0,0,0-1.13,1.13v3.21A1.13,1.13,0,0,0,97.34,20h5.85v7.58H96c-2.61,0-4.49-.58-5.66-1.74s-1.77-3.1-1.84-5.8q-.09-2.83-.09-3.54c0-.5,0-1.66.09-3.49.07-2.57.71-4.47,1.94-5.68s3.16-1.81,5.8-1.81h12.39V1.18a1.21,1.21,0,0,0-.3-.85A1.08,1.08,0,0,0,107.52,0Z"/><path class="cls-1" d="M22.3,27.53H1.13a1.09,1.09,0,0,0-.8.33,1.09,1.09,0,0,0-.33.8v3.21a1.09,1.09,0,0,0,.33.8,1.09,1.09,0,0,0,.8.33H22.3a1.19,1.19,0,0,0,.85-.31,1.06,1.06,0,0,0,.33-.82h0V28.66h0a1.06,1.06,0,0,0-.33-.82A1.19,1.19,0,0,0,22.3,27.53Z"/><path class="cls-1" d="M22.3,0H1.13a1.09,1.09,0,0,0-.8.33,1.09,1.09,0,0,0-.33.8V4.34a1.09,1.09,0,0,0,.33.8,1.09,1.09,0,0,0,.8.33H22.3a1.19,1.19,0,0,0,.85-.31,1.06,1.06,0,0,0,.33-.82h0V1.13h0a1.06,1.06,0,0,0-.33-.82A1.19,1.19,0,0,0,22.3,0Z"/><path class="cls-1" d="M22.3,13.77H1.13a1.09,1.09,0,0,0-.8.33,1.08,1.08,0,0,0-.33.8v3.2a1.08,1.08,0,0,0,.33.8,1.09,1.09,0,0,0,.8.33H22.3a1.23,1.23,0,0,0,.85-.3,1.08,1.08,0,0,0,.33-.83h0V14.9h0a1.08,1.08,0,0,0-.33-.83A1.23,1.23,0,0,0,22.3,13.77Z"/><path class="cls-1" d="M146.62,27.53H125.46a1.13,1.13,0,0,0-1.14,1.13v3.21A1.13,1.13,0,0,0,125.46,33h21.16a1.17,1.17,0,0,0,.85-.31,1.06,1.06,0,0,0,.33-.82h0V28.66h0a1.06,1.06,0,0,0-.33-.82A1.17,1.17,0,0,0,146.62,27.53Z"/><path class="cls-1" d="M146.62,0H125.46a1.1,1.1,0,0,0-.81.33,1.09,1.09,0,0,0-.33.8V4.34a1.13,1.13,0,0,0,1.14,1.13h21.16a1.17,1.17,0,0,0,.85-.31,1.06,1.06,0,0,0,.33-.82h0V1.13h0a1.06,1.06,0,0,0-.33-.82A1.17,1.17,0,0,0,146.62,0Z"/><path class="cls-1" d="M146.62,13.77H125.46a1.1,1.1,0,0,0-.81.33,1.08,1.08,0,0,0-.33.8v3.2a1.08,1.08,0,0,0,.33.8,1.1,1.1,0,0,0,.81.33h21.16a1.21,1.21,0,0,0,.85-.3,1.08,1.08,0,0,0,.33-.83h0V14.9h0a1.08,1.08,0,0,0-.33-.83A1.21,1.21,0,0,0,146.62,13.77Z"/></g></g></svg>