<svg width="35" height="35" viewBox="0 0 16 13" fill="none" xmlns="http://www.w3.org/2000/svg">
<path d="M11.0938 6.41634C11.0938 7.94239 9.83455 9.1795 8.28125 9.1795M11.0938 6.41634C11.0938 4.89029 9.83455 3.65318 8.28125 3.65318M11.0938 6.41634H8.28125M8.28125 9.1795C6.72795 9.1795 5.46875 7.94239 5.46875 6.41634M8.28125 9.1795V6.41634M5.46875 6.41634C5.46875 4.89029 6.72795 3.65318 8.28125 3.65318M5.46875 6.41634H8.28125M8.28125 3.65318V6.41634M8.28125 6.41634L6.3125 8.38125M8.28125 6.41634L10.2813 4.45143M8.28125 6.41634L10.2813 8.38125M8.28125 6.41634L6.3125 4.45143M1.5625 12.2497V0.583008H0M15 11.0216H1.5625V1.81108H11.5313C13.4375 1.81108 15 3.34617 15 5.21897V11.0216ZM0.625 7.33739H1.5625V9.48652H0.625V7.33739ZM0.625 3.34617H1.5625V5.49529H0.625V3.34617Z" stroke="#333333" stroke-miterlimit="10"/>
</svg>
