<svg width="32.72" height="35" viewBox="0 0 15 17" fill="none" xmlns="http://www.w3.org/2000/svg">
<path d="M4.95668 10.4865C4.2603 9.76651 3.84881 8.8065 3.84881 7.7865C3.84881 5.5365 5.74801 3.7365 8.12202 3.7365C10.496 3.7365 12.3952 5.5365 12.3952 7.7865C12.3952 10.0365 10.496 11.8365 8.12202 11.8365C7.36234 11.8365 6.63431 11.6565 6.00124 11.2965M14.4211 15.9165H1V0.916504H11.1291C12.965 0.916504 14.4211 2.3265 14.4211 4.0365V15.9165ZM9.32485 7.7865C9.32485 8.41611 8.78632 8.92651 8.12202 8.92651C7.45772 8.92651 6.91919 8.41611 6.91919 7.7865C6.91919 7.1569 7.45772 6.6465 8.12202 6.6465C8.78632 6.6465 9.32485 7.1569 9.32485 7.7865ZM3.21574 12.4665C2.89921 12.6765 2.89921 13.1265 3.18409 13.3665L3.46897 13.5765C3.56393 13.6665 3.72219 13.6965 3.84881 13.6965C4.07038 13.6965 4.29196 13.5765 4.38692 13.3665L5.49479 10.9065L3.21574 12.4665Z" stroke="#333333" stroke-miterlimit="10"/>
</svg>
