<svg width="221" height="33" viewBox="0 0 221 33" fill="none" xmlns="http://www.w3.org/2000/svg">
<path d="M24.6446 0H1.10736C0.777506 0 0.494777 0.120438 0.306291 0.337226C0.117805 0.554015 0 0.843066 0 1.18029V4.72117C0 5.05839 0.117804 5.34745 0.329851 5.56423C0.541898 5.78102 0.801067 5.90146 1.10736 5.90146H9.63635V31.8438C9.63635 32.1569 9.75416 32.4219 9.96621 32.6387C10.1783 32.8555 10.4374 32.9759 10.7437 32.9759H15.0789C15.4087 32.9759 15.6915 32.8555 15.88 32.6387C16.0684 32.4219 16.1862 32.1569 16.1862 31.8438V5.87737H24.6681C24.998 5.87737 25.2807 5.75693 25.4928 5.54015C25.7048 5.32336 25.8226 5.03431 25.8226 4.69708V1.18029C25.8226 0.843066 25.7048 0.554015 25.4928 0.337226C25.2571 0.120438 24.9744 0 24.6446 0Z" fill="#000000"/>
<path d="M53.7892 1.18029C53.4829 0.385401 52.9175 0 52.14 0H47.0744C46.2733 0 45.7314 0.385401 45.4252 1.18029L34.3516 31.5547L34.2574 31.9883C34.2574 32.2774 34.3516 32.5182 34.5401 32.6869C34.7286 32.8796 34.9642 32.9759 35.2233 32.9759H39.3229C39.9591 32.9759 40.4067 32.6869 40.6659 32.0847L49.5954 6.43139L58.5249 32.0606C58.7606 32.6628 59.2082 32.9518 59.8679 32.9518H63.9675C64.2031 32.9518 64.4387 32.8555 64.6272 32.6628C64.8157 32.4701 64.9335 32.2292 64.9335 31.9642L64.8392 31.5307L53.7892 1.18029Z" fill="#000000"/>
<path d="M100.44 27.3153H85.8319V1.13212C85.8319 0.79489 85.7376 0.505839 85.5256 0.313139C85.3371 0.120438 85.0544 0 84.7245 0H80.3893C80.083 0 79.8239 0.0963504 79.6118 0.313139C79.3998 0.505839 79.282 0.79489 79.282 1.13212V31.8197C79.282 32.1328 79.3998 32.3978 79.6118 32.6146C79.8239 32.8314 80.083 32.9518 80.3893 32.9518H100.416C100.746 32.9518 101.029 32.8314 101.241 32.6146C101.453 32.3978 101.57 32.1328 101.57 31.8197V28.4234C101.57 28.1102 101.453 27.8453 101.241 27.6285C101.052 27.4117 100.769 27.3153 100.44 27.3153Z" fill="#000000"/>
<path d="M179.274 0H175.316C174.986 0 174.703 0.120438 174.515 0.337226C174.326 0.554015 174.208 0.843066 174.208 1.18029V21.7029L161.038 0.794891C160.732 0.264963 160.284 0 159.695 0H156.114C155.784 0 155.501 0.120438 155.313 0.337226C155.124 0.554015 155.006 0.843066 155.006 1.18029V31.8197C155.006 32.1328 155.124 32.3978 155.336 32.6146C155.548 32.8314 155.807 32.9518 156.114 32.9518H160.072C160.402 32.9518 160.684 32.8314 160.873 32.6146C161.061 32.3978 161.179 32.1328 161.179 31.8197V11.7307L174.303 32.1569C174.609 32.6869 175.08 32.9518 175.693 32.9518H179.321C179.627 32.9518 179.886 32.8314 180.099 32.6146C180.311 32.3978 180.428 32.1088 180.428 31.7715V1.18029C180.428 0.843066 180.311 0.554015 180.099 0.337226C179.886 0.120438 179.627 0 179.274 0Z" fill="#000000"/>
<path d="M220.647 0.337226C220.435 0.120438 220.152 0 219.822 0H196.285C195.955 0 195.672 0.120438 195.484 0.337226C195.295 0.554015 195.177 0.843066 195.177 1.18029V4.72117C195.177 5.05839 195.295 5.34745 195.507 5.56423C195.719 5.78102 195.978 5.90146 196.285 5.90146H204.814V31.8438C204.814 32.1569 204.932 32.4219 205.144 32.6387C205.356 32.8555 205.615 32.9759 205.921 32.9759H210.256C210.586 32.9759 210.869 32.8555 211.057 32.6387C211.246 32.4219 211.364 32.1569 211.364 31.8438V5.87737H219.846C220.175 5.87737 220.458 5.75693 220.67 5.54015C220.882 5.32336 221 5.03431 221 4.69708V1.18029C220.953 0.843066 220.859 0.554015 220.647 0.337226Z" fill="#000000"/>
<path d="M137.972 27.508H117.286C116.979 27.508 116.72 27.6285 116.508 27.8453C116.296 28.062 116.178 28.327 116.178 28.6401V31.8679C116.178 32.181 116.296 32.446 116.508 32.6628C116.72 32.8796 116.979 33 117.286 33H137.972C138.302 33 138.584 32.9036 138.796 32.6869C139.009 32.4942 139.126 32.2051 139.126 31.8679V28.6642C139.126 28.327 139.009 28.038 138.796 27.8453C138.584 27.6044 138.302 27.508 137.972 27.508Z" fill="#000000"/>
<path d="M137.972 0H117.286C116.979 0 116.72 0.120438 116.508 0.337226C116.296 0.554015 116.178 0.818978 116.178 1.13212V4.33577C116.178 4.64891 116.296 4.91387 116.508 5.13066C116.72 5.34745 116.979 5.46788 117.286 5.46788H137.972C138.302 5.46788 138.584 5.37153 138.796 5.15474C139.009 4.96204 139.126 4.67299 139.126 4.33577V1.13212C139.126 0.79489 139.009 0.505839 138.796 0.313139C138.584 0.0963504 138.302 0 137.972 0Z" fill="#000000"/>
<path d="M137.972 13.754H117.286C116.979 13.754 116.72 13.8745 116.508 14.0912C116.296 14.308 116.178 14.573 116.178 14.8861V18.1139C116.178 18.427 116.296 18.692 116.508 18.9088C116.72 19.1255 116.979 19.246 117.286 19.246H137.972C138.302 19.246 138.584 19.1496 138.796 18.9328C139.009 18.7401 139.126 18.4511 139.126 18.1139V14.8861C139.126 14.5489 139.009 14.2599 138.796 14.0672C138.584 13.8504 138.302 13.754 137.972 13.754Z" fill="#000000"/>
</svg>