<svg width="240" height="33" viewBox="0 0 240 33" fill="none" xmlns="http://www.w3.org/2000/svg">
<path d="M26.1131 0.468085H22.2118C21.835 0.468085 21.5246 0.585084 21.3029 0.795722C21.0813 1.00636 20.9261 1.24044 20.8596 1.47448L13.5889 24.9021L6.36255 1.47448C6.27389 1.24044 6.11872 1.00636 5.87489 0.795722C5.65322 0.585084 5.34288 0.468085 4.96605 0.468085H1.10903C0.843031 0.468085 0.621364 0.561691 0.466196 0.748925C0.288862 0.936159 0.200195 1.17024 0.200195 1.42768C0.200195 1.61492 0.222362 1.7553 0.244529 1.84891L9.51023 31.2213C9.77623 32.0638 10.3304 32.5085 11.1949 32.5085H16.0273C16.8696 32.5085 17.4238 32.0872 17.7119 31.2213L26.9333 1.84891L27.022 1.42768C27.022 1.14683 26.9333 0.912755 26.7338 0.748925C26.5565 0.561691 26.357 0.468085 26.1131 0.468085Z" fill="#000000"/>
<path d="M46.3514 0.468085H42.184C41.8959 0.468085 41.652 0.561714 41.4525 0.772352C41.253 0.959586 41.1422 1.24041 41.1422 1.56807V31.3851C41.1422 31.6894 41.253 31.9468 41.4525 32.1574C41.652 32.3681 41.8959 32.4851 42.184 32.4851H46.3514C46.6617 32.4851 46.9277 32.3681 47.1051 32.1574C47.2824 31.9468 47.3932 31.6894 47.3932 31.3851V1.56807C47.3932 1.24041 47.3046 0.959586 47.1051 0.772352C46.9277 0.561714 46.6617 0.468085 46.3514 0.468085Z" fill="#000000"/>
<path d="M122.871 0.468085H100.726C100.416 0.468085 100.15 0.585084 99.9728 0.795722C99.7954 1.00636 99.6846 1.28721 99.6846 1.61487V5.05534C99.6846 5.383 99.7954 5.66385 99.9949 5.87449C100.194 6.08513 100.438 6.20213 100.726 6.20213H108.751V31.4085C108.751 31.7128 108.862 31.9702 109.061 32.1809C109.261 32.3915 109.504 32.5085 109.793 32.5085H113.871C114.182 32.5085 114.448 32.3915 114.625 32.1809C114.802 31.9702 114.913 31.7128 114.913 31.4085V6.20213H122.893C123.204 6.20213 123.47 6.08513 123.669 5.87449C123.869 5.66385 123.979 5.383 123.979 5.05534V1.61487C123.979 1.28721 123.869 1.00636 123.669 0.795722C123.447 0.585084 123.181 0.468085 122.871 0.468085Z" fill="#000000"/>
<path d="M198.127 3.25317C195.866 1.07657 192.829 0 189.017 0C185.182 0 182.123 1.07657 179.884 3.25317C177.623 5.42976 176.448 8.51916 176.337 12.5915C176.315 13.4809 176.293 14.7915 176.293 16.5234C176.293 18.2319 176.315 19.5191 176.337 20.4085C176.448 24.5511 177.601 27.6872 179.795 29.7936C181.99 31.9 185.071 32.9532 189.017 32.9532C192.94 32.9532 196.021 31.9 198.216 29.7936C200.433 27.6872 201.585 24.5745 201.696 20.4085C201.763 18.6298 201.785 17.3426 201.785 16.5234C201.785 15.6809 201.763 14.3468 201.696 12.5915C201.585 8.54256 200.41 5.42976 198.127 3.25317ZM195.423 20.1745C195.334 22.7021 194.736 24.5745 193.605 25.7915C192.475 27.0085 190.945 27.617 189.017 27.617C187.088 27.617 185.536 27.0085 184.406 25.7681C183.275 24.5277 182.655 22.6553 182.61 20.1745C182.588 19.2617 182.566 18.0213 182.566 16.4766C182.566 14.8851 182.588 13.6447 182.61 12.7787C182.677 10.2745 183.275 8.40212 184.428 7.1851C185.581 5.94467 187.11 5.33618 189.017 5.33618C190.901 5.33618 192.408 5.94467 193.561 7.1851C194.714 8.42552 195.334 10.2979 195.423 12.7787C195.489 14.5575 195.512 15.7744 195.512 16.4766C195.512 17.1319 195.489 18.3489 195.423 20.1745Z" fill="#000000"/>
<path d="M160.333 0.468085H156.343C156.033 0.468085 155.767 0.585084 155.567 0.795722C155.368 1.00636 155.257 1.28721 155.257 1.61487V20.2447C155.257 22.6553 154.725 24.4575 153.638 25.6979C152.552 26.9149 151.023 27.5234 149.028 27.5234C147.033 27.5234 145.503 26.9149 144.417 25.6979C143.331 24.4809 142.799 22.6553 142.799 20.2447V1.61487C142.799 1.28721 142.688 1.00636 142.489 0.795722C142.289 0.585084 142.023 0.468085 141.713 0.468085H137.723C137.412 0.468085 137.146 0.585084 136.969 0.795722C136.792 1.00636 136.681 1.28721 136.681 1.61487V20.2447C136.681 24.5043 137.767 27.7106 139.939 29.817C142.112 31.9234 145.149 32.9766 149.072 32.9766C152.973 32.9766 155.988 31.9234 158.161 29.817C160.311 27.7106 161.397 24.5277 161.397 20.2447V1.61487C161.397 1.28721 161.308 1.00636 161.109 0.795722C160.909 0.585084 160.643 0.468085 160.333 0.468085Z" fill="#000000"/>
<path d="M81.53 19.3553C83.3477 18.6766 84.7664 17.6 85.786 16.0787C86.8057 14.5574 87.2934 12.7085 87.2934 10.4851C87.2934 7.27873 86.2959 4.8213 84.2787 3.06598C82.2615 1.33407 79.4907 0.468085 75.944 0.468085H64.7276C64.4173 0.468085 64.1513 0.585084 63.974 0.795722C63.7966 1.00636 63.6858 1.28721 63.6858 1.61487V5.59359H75.811C77.54 5.59359 78.8478 6.01491 79.7123 6.85746C80.5769 7.70001 81.0202 8.89364 81.0202 10.4383C81.0202 11.983 80.5769 13.1766 79.7123 13.9723C78.8478 14.7915 77.54 15.1893 75.811 15.1893H63.6858V31.3851C63.6858 31.6894 63.7966 31.9468 63.9961 32.1574C64.1956 32.3681 64.4395 32.4851 64.7276 32.4851H68.7176C69.028 32.4851 69.294 32.3681 69.4935 32.1574C69.693 31.9468 69.8038 31.6894 69.8038 31.3851V20.4085H75.7445L81.2862 31.2447C81.4857 31.6191 81.7295 31.9 81.9734 32.1341C82.2394 32.3681 82.594 32.4851 83.0595 32.4851H87.0495C87.2712 32.4851 87.4929 32.3915 87.6702 32.2043C87.8476 32.017 87.9584 31.783 87.9584 31.5255C87.9584 31.3617 87.9141 31.1979 87.8254 31.0341L81.53 19.3553Z" fill="#000000"/>
<path d="M238.914 18.9106C238.183 17.7404 237.074 16.7809 235.567 16.0319C234.059 15.2596 231.998 14.5808 229.427 13.9723C227.542 13.4574 226.124 12.9894 225.126 12.5681C224.151 12.1468 223.419 11.6787 222.954 11.117C222.488 10.5787 222.267 9.87658 222.267 9.05744C222.267 7.84041 222.732 6.90427 223.641 6.27235C224.55 5.64044 225.791 5.31275 227.387 5.31275C228.828 5.31275 230.047 5.6404 231.023 6.29572C231.998 6.95104 232.574 7.77019 232.707 8.75317C232.929 9.29147 233.372 9.57232 234.015 9.57232H238.138C238.404 9.57232 238.626 9.47875 238.781 9.26811C238.958 9.08087 239.047 8.84682 239.047 8.61278C238.981 7.30214 238.515 5.99147 237.606 4.65742C236.697 3.32338 235.367 2.22339 233.616 1.33403C231.865 0.444669 229.803 0 227.409 0C225.126 0 223.131 0.397895 221.402 1.19364C219.673 1.98938 218.365 3.06598 217.434 4.47024C216.503 5.85109 216.038 7.44256 216.038 9.19788C216.038 11.8192 216.836 13.8319 218.432 15.2362C220.028 16.6404 222.511 17.7639 225.924 18.6298C228.008 19.2149 229.582 19.7064 230.624 20.1277C231.688 20.5489 232.463 21.017 232.995 21.5787C233.505 22.117 233.771 22.8191 233.771 23.6383C233.771 24.8787 233.261 25.8617 232.242 26.5873C231.222 27.3128 229.693 27.6638 227.675 27.6638C225.88 27.6638 224.483 27.3128 223.442 26.6106C222.422 25.9085 221.757 25.0426 221.469 24.0128C221.291 23.7319 221.114 23.5213 220.915 23.3808C220.715 23.217 220.449 23.1468 220.139 23.1468H216.193C215.927 23.1468 215.705 23.2404 215.55 23.4511C215.373 23.6383 215.284 23.8723 215.284 24.1064C215.351 25.6979 215.838 27.1489 216.792 28.5064C217.745 29.8404 219.141 30.9404 221.003 31.7596C222.843 32.5787 225.082 33 227.675 33C230.136 33 232.286 32.6256 234.148 31.8532C236.01 31.0809 237.451 29.9808 238.471 28.5298C239.49 27.0787 240 25.3702 240 23.3808C240 21.5319 239.623 20.0575 238.914 18.9106Z" fill="#000000"/>
</svg>